<svg xmlns="http://www.w3.org/2000/svg" version="1.1" xmlns:xlink="http://www.w3.org/1999/xlink" xmlns:svgjs="http://svgjs.dev/svgjs" width="1000" height="244" viewBox="0 0 1000 244"><g transform="matrix(1,0,0,1,-0.6060606060606233,-0.39462666377743005)"><svg viewBox="0 0 396 97" data-background-color="#2563eb" preserveAspectRatio="xMidYMid meet" height="244" width="1000" xmlns="http://www.w3.org/2000/svg" xmlns:xlink="http://www.w3.org/1999/xlink"><g id="tight-bounds" transform="matrix(1,0,0,1,0.2400000000000091,0.15688027207545474)"><svg viewBox="0 0 395.52 96.68623945584909" height="96.68623945584909" width="395.52"><g><svg viewBox="0 0 559.3712038950836 136.74023605508353" height="96.68623945584909" width="395.52"><g transform="matrix(1,0,0,1,163.85120389508353,39.66011802754176)"><svg viewBox="0 0 395.52000000000004 57.42" height="57.42" width="395.52000000000004"><g id="textblocktransform"><svg viewBox="0 0 395.52000000000004 57.42" height="57.42" width="395.52000000000004" id="textblock"><g><svg viewBox="0 0 395.52000000000004 57.42" height="57.42" width="395.52000000000004"><g transform="matrix(1,0,0,1,0,0)"><svg width="395.52000000000004" viewBox="2.95 -37.5 329.57 47.85" height="57.42" data-palette-color="#ffffff"><path d="M7.95 0L2.95 0 2.95-35 7.95-36.1 7.95-22.9Q9.45-24.4 11.38-25.18 13.3-25.95 15.6-25.95L15.6-25.95Q19.95-25.95 22.75-23.18 25.55-20.4 25.55-16L25.55-16 25.55 0 20.55 0 20.55-15.15Q20.55-18.15 18.82-19.88 17.1-21.6 14.25-21.6L14.25-21.6Q12.25-21.6 10.63-20.75 9-19.9 7.95-18.3L7.95-18.3 7.95 0ZM50.15-6.05L53.35-2.9Q51.15-1.2 48.75-0.38 46.35 0.45 43.5 0.45L43.5 0.45Q40.7 0.45 38.25-0.58 35.8-1.6 34-3.35 32.2-5.1 31.17-7.53 30.15-9.95 30.15-12.75L30.15-12.75Q30.15-15.5 31.15-17.9 32.15-20.3 33.85-22.05 35.55-23.8 37.9-24.83 40.25-25.85 42.9-25.85L42.9-25.85Q45.5-25.85 47.77-24.83 50.05-23.8 51.67-22.03 53.3-20.25 54.25-17.8 55.2-15.35 55.2-12.55L55.2-12.55 55.2-11.1 35.1-11.1Q35.6-7.95 38-5.88 40.4-3.8 43.7-3.8L43.7-3.8Q45.55-3.8 47.25-4.4 48.95-5 50.15-6.05L50.15-6.05ZM42.8-21.65L42.8-21.65Q39.95-21.65 37.82-19.75 35.7-17.85 35.15-14.85L35.15-14.85 50.25-14.85Q49.7-17.75 47.62-19.7 45.55-21.65 42.8-21.65ZM59.85-25.45L64.84-25.45 64.84-10.35Q64.84-7.35 66.57-5.6 68.3-3.85 71.15-3.85L71.15-3.85Q73.15-3.85 74.75-4.73 76.34-5.6 77.4-7.2L77.4-7.2 77.4-25.45 82.4-25.45 82.4 0 77.4 0 77.4-2.55Q75.9-1.05 73.97-0.28 72.05 0.5 69.75 0.5L69.75 0.5Q65.4 0.5 62.62-2.3 59.85-5.1 59.85-9.5L59.85-9.5 59.85-25.45ZM93.29 0L88.29 0 88.29-25.45 93.29-25.45 93.29-22.2Q94.44-24.05 96.24-25.03 98.04-26 100.29-26L100.29-26Q101.09-26 101.69-25.9 102.29-25.8 102.84-25.6L102.84-25.6 102.84-21.1Q102.14-21.35 101.39-21.5 100.64-21.65 99.89-21.65L99.89-21.65Q97.69-21.65 95.97-20.48 94.24-19.3 93.29-17L93.29-17 93.29 0ZM124.14-6.05L127.34-2.9Q125.14-1.2 122.74-0.38 120.34 0.45 117.49 0.45L117.49 0.45Q114.69 0.45 112.24-0.58 109.79-1.6 107.99-3.35 106.19-5.1 105.17-7.53 104.14-9.95 104.14-12.75L104.14-12.75Q104.14-15.5 105.14-17.9 106.14-20.3 107.84-22.05 109.54-23.8 111.89-24.83 114.24-25.85 116.89-25.85L116.89-25.85Q119.49-25.85 121.77-24.83 124.04-23.8 125.67-22.03 127.29-20.25 128.24-17.8 129.19-15.35 129.19-12.55L129.19-12.55 129.19-11.1 109.09-11.1Q109.59-7.95 111.99-5.88 114.39-3.8 117.69-3.8L117.69-3.8Q119.54-3.8 121.24-4.4 122.94-5 124.14-6.05L124.14-6.05ZM116.79-21.65L116.79-21.65Q113.94-21.65 111.81-19.75 109.69-17.85 109.14-14.85L109.14-14.85 124.24-14.85Q123.69-17.75 121.62-19.7 119.54-21.65 116.79-21.65ZM131.79-3.3L131.79-3.3 134.49-6.6Q136.49-5.05 138.56-4.23 140.64-3.4 142.79-3.4L142.79-3.4Q145.49-3.4 147.19-4.45 148.89-5.5 148.89-7.2L148.89-7.2Q148.89-8.55 147.89-9.35 146.89-10.15 144.79-10.45L144.79-10.45 140.19-11.1Q136.44-11.65 134.51-13.43 132.59-15.2 132.59-18.15L132.59-18.15Q132.59-21.6 135.34-23.73 138.09-25.85 142.54-25.85L142.54-25.85Q145.34-25.85 147.86-25.05 150.39-24.25 152.79-22.6L152.79-22.6 150.24-19.3Q148.14-20.7 146.16-21.33 144.19-21.95 142.19-21.95L142.19-21.95Q139.89-21.95 138.49-21 137.09-20.05 137.09-18.5L137.09-18.5Q137.09-17.1 138.06-16.38 139.04-15.65 141.29-15.3L141.29-15.3 145.89-14.65Q149.64-14.1 151.61-12.3 153.59-10.5 153.59-7.55L153.59-7.55Q153.59-5.85 152.76-4.38 151.94-2.9 150.51-1.85 149.09-0.8 147.14-0.18 145.19 0.45 142.94 0.45L142.94 0.45Q139.64 0.45 136.76-0.5 133.89-1.45 131.79-3.3ZM156.79-12L156.79-16.3 174.79-16.3 174.79-12 156.79-12ZM177.63-3.3L177.63-3.3 180.33-6.6Q182.33-5.05 184.41-4.23 186.48-3.4 188.63-3.4L188.63-3.4Q191.33-3.4 193.03-4.45 194.73-5.5 194.73-7.2L194.73-7.2Q194.73-8.55 193.73-9.35 192.73-10.15 190.63-10.45L190.63-10.45 186.03-11.1Q182.28-11.65 180.36-13.43 178.43-15.2 178.43-18.15L178.43-18.15Q178.43-21.6 181.18-23.73 183.93-25.85 188.38-25.85L188.38-25.85Q191.18-25.85 193.71-25.05 196.23-24.25 198.63-22.6L198.63-22.6 196.08-19.3Q193.98-20.7 192.01-21.33 190.03-21.95 188.03-21.95L188.03-21.95Q185.73-21.95 184.33-21 182.93-20.05 182.93-18.5L182.93-18.5Q182.93-17.1 183.91-16.38 184.88-15.65 187.13-15.3L187.13-15.3 191.73-14.65Q195.48-14.1 197.46-12.3 199.43-10.5 199.43-7.55L199.43-7.55Q199.43-5.85 198.61-4.38 197.78-2.9 196.36-1.85 194.93-0.8 192.98-0.18 191.03 0.45 188.78 0.45L188.78 0.45Q185.48 0.45 182.61-0.5 179.73-1.45 177.63-3.3ZM203.18-25.45L208.18-25.45 208.18-10.35Q208.18-7.35 209.91-5.6 211.63-3.85 214.48-3.85L214.48-3.85Q216.48-3.85 218.08-4.73 219.68-5.6 220.73-7.2L220.73-7.2 220.73-25.45 225.73-25.45 225.73 0 220.73 0 220.73-2.55Q219.23-1.05 217.31-0.28 215.38 0.5 213.08 0.5L213.08 0.5Q208.73 0.5 205.96-2.3 203.18-5.1 203.18-9.5L203.18-9.5 203.18-25.45ZM236.63 10.35L231.63 10.35 231.63-25.45 236.58-25.45 236.58-23Q238.13-24.4 240.13-25.13 242.13-25.85 244.38-25.85L244.38-25.85Q247.08-25.85 249.43-24.83 251.78-23.8 253.5-22.05 255.23-20.3 256.23-17.9 257.23-15.5 257.23-12.75L257.23-12.75Q257.23-10 256.23-7.58 255.23-5.15 253.5-3.4 251.78-1.65 249.38-0.63 246.98 0.4 244.28 0.4L244.28 0.4Q242.18 0.4 240.2-0.25 238.23-0.9 236.63-2.1L236.63-2.1 236.63 10.35ZM243.73-21.5L243.73-21.5Q241.58-21.5 239.73-20.7 237.88-19.9 236.63-18.45L236.63-18.45 236.63-6.95Q237.83-5.55 239.7-4.75 241.58-3.95 243.73-3.95L243.73-3.95Q247.38-3.95 249.85-6.45 252.33-8.95 252.33-12.7L252.33-12.7Q252.33-16.45 249.83-18.98 247.33-21.5 243.73-21.5ZM266.98 10.35L261.98 10.35 261.98-25.45 266.93-25.45 266.93-23Q268.48-24.4 270.48-25.13 272.48-25.85 274.73-25.85L274.73-25.85Q277.43-25.85 279.78-24.83 282.13-23.8 283.85-22.05 285.58-20.3 286.58-17.9 287.58-15.5 287.58-12.75L287.58-12.75Q287.58-10 286.58-7.58 285.58-5.15 283.85-3.4 282.13-1.65 279.73-0.63 277.33 0.4 274.63 0.4L274.63 0.4Q272.53 0.4 270.55-0.25 268.58-0.9 266.98-2.1L266.98-2.1 266.98 10.35ZM274.08-21.5L274.08-21.5Q271.93-21.5 270.08-20.7 268.23-19.9 266.98-18.45L266.98-18.45 266.98-6.95Q268.18-5.55 270.05-4.75 271.93-3.95 274.08-3.95L274.08-3.95Q277.73-3.95 280.2-6.45 282.68-8.95 282.68-12.7L282.68-12.7Q282.68-16.45 280.18-18.98 277.68-21.5 274.08-21.5ZM293.47-5.95L293.47-5.95Q294.77-5.95 295.7-5.03 296.62-4.1 296.62-2.8L296.62-2.8Q296.62-1.5 295.7-0.55 294.77 0.4 293.47 0.4L293.47 0.4Q292.17 0.4 291.22-0.55 290.27-1.5 290.27-2.8L290.27-2.8Q290.27-4.1 291.22-5.03 292.17-5.95 293.47-5.95ZM296.02-21.25L296.02-25.45 301.92-25.45 301.92-29.3Q301.92-33.25 304.15-35.38 306.37-37.5 310.57-37.5L310.57-37.5Q311.57-37.5 312.47-37.38 313.37-37.25 314.17-37.05L314.17-37.05 314.17-32.7Q313.27-32.95 312.57-33.05 311.87-33.15 311.02-33.15L311.02-33.15Q308.97-33.15 307.95-32.18 306.92-31.2 306.92-29.2L306.92-29.2 306.92-25.45 314.17-25.45 314.17-21.25 306.92-21.25 306.92 0 301.92 0 301.92-21.25 296.02-21.25ZM322.97 0L317.97 0 317.97-25.45 322.97-25.45 322.97-22.2Q324.12-24.05 325.92-25.03 327.72-26 329.97-26L329.97-26Q330.77-26 331.37-25.9 331.97-25.8 332.52-25.6L332.52-25.6 332.52-21.1Q331.82-21.35 331.07-21.5 330.32-21.65 329.57-21.65L329.57-21.65Q327.37-21.65 325.64-20.48 323.92-19.3 322.97-17L322.97-17 322.97 0Z" opacity="1" transform="matrix(1,0,0,1,0,0)" fill="#ffffff" class="undefined-text-0" data-fill-palette-color="primary" id="text-0"></path></svg></g></svg></g></svg></g></svg></g><g><svg viewBox="0 0 136.74023605508353 136.74023605508353" height="136.74023605508353" width="136.74023605508353"><g><svg></svg></g><g id="icon-0"><svg viewBox="0 0 136.74023605508353 136.74023605508353" height="136.74023605508353" width="136.74023605508353"><g><path d="M0 68.37c0-37.76 30.61-68.37 68.37-68.37 37.76 0 68.37 30.61 68.37 68.37 0 37.76-30.61 68.37-68.37 68.37-37.76 0-68.37-30.61-68.37-68.37zM68.37 131.562c34.9 0 63.192-28.292 63.192-63.192 0-34.9-28.292-63.192-63.192-63.192-34.9 0-63.192 28.292-63.192 63.192 0 34.9 28.292 63.192 63.192 63.192z" data-fill-palette-color="accent" fill="#ffffff" stroke="transparent"></path><ellipse rx="67.68641684726634" ry="67.68641684726634" cx="68.37011802754176" cy="68.37011802754176" fill="#ffffff" stroke="transparent" stroke-width="0" fill-opacity="1" data-fill-palette-color="accent"></ellipse></g><g transform="matrix(1,0,0,1,29.001491780826754,32.621769454149145)"><svg viewBox="0 0 78.73725249343002 71.49669714678524" height="71.49669714678524" width="78.73725249343002"><g><svg xmlns="http://www.w3.org/2000/svg" xmlns:xlink="http://www.w3.org/1999/xlink" version="1.1" x="0" y="0" viewBox="20 32 259.9 236" enable-background="new 0 0 300 300" xml:space="preserve" height="71.49669714678524" width="78.73725249343002" class="icon-g$-0" data-fill-palette-color="quaternary" id="g$-0"><path d="M177.8 227H168v-11.7c0-2.8-1.9-5.3-4.6-5.3H39.5c-2.8 0-5.5 2.5-5.5 5.3V227h-9c-2.8 0-5 2.4-5 5.2v31c0 2.8 2.2 4.8 5 4.8h152.8c2.8 0 5.2-2.1 5.2-4.8v-31C183 229.4 180.6 227 177.8 227zM44 220h114v7H44V220zM173 258H30v-21h9.5 123.9 9.6V258zM275 206c-3.3-3.3-7.6-5-12.2-5-0.1 0-0.2 0-0.3 0l-83-83 17.8-17.8c1.2-1.2 1.6-2.7 1.4-4.2l0.4 0.4c1 1 2.3 1.5 3.5 1.5s2.6-0.5 3.5-1.5l9.2-9.2c0.9-0.9 1.5-2.2 1.5-3.5s-0.5-2.6-1.5-3.5l-46.7-46.7c-2-2-5.1-2-7.1 0l-9.2 9.2c-0.9 0.9-1.5 2.2-1.5 3.5s0.5 2.6 1.5 3.5l0.4 0.4c-0.2 0-0.5-0.1-0.7-0.1-1.3 0-2.6 0.5-3.5 1.5L96 104c-1.3 1.3-1.7 3.2-1.3 4.8l-0.8-0.8c-0.9-0.9-2.2-1.5-3.5-1.5s-2.6 0.5-3.5 1.5l-9.2 9.2c-2 2-2 5.1 0 7.1l46.7 46.7c1 1 2.3 1.5 3.5 1.5s2.6-0.5 3.5-1.5l9.2-9.2c2-2 2-5.1 0-7.1l-0.8-0.8c0.4 0.1 0.9 0.2 1.3 0.2 1.3 0 2.6-0.5 3.5-1.5l17.8-17.8 83.1 83.1c0 0.1 0 0.2 0 0.3 0 4.6 1.8 8.9 5 12.2s7.6 5 12.2 5 8.9-1.8 12.2-5c3.3-3.3 5-7.6 5-12.2S278.2 209.3 275 206zM165.1 43.9l39.6 39.6-2.1 2.1L163 46 165.1 43.9zM127.8 160.4l-39.6-39.6 2.1-2.1 39.6 39.6L127.8 160.4zM141.1 142.1l-34.6-34.6L152.1 62l3.4 3.4c0 0 0 0 0 0l13.9 13.9 17.3 17.3-17.8 17.8c0 0 0 0 0 0l-9.9 9.9c0 0 0 0 0 0L141.1 142.1zM169.5 127.8l2.8-2.8 79.7 79.7c-0.5 0.4-1 0.8-1.5 1.3-0.5 0.5-0.9 1-1.3 1.5L169.5 127.8zM267.9 223.3c-1.4 1.4-3.2 2.1-5.1 2.1-1.9 0-3.8-0.8-5.1-2.1s-2.1-3.2-2.1-5.1 0.8-3.8 2.1-5.1c1.4-1.4 3.2-2.1 5.1-2.1s3.8 0.8 5.1 2.1c1.4 1.4 2.1 3.2 2.1 5.1S269.2 222 267.9 223.3z" fill="#2563eb" data-fill-palette-color="quaternary"></path></svg></g></svg></g></svg></g></svg></g></svg></g><defs></defs></svg><rect width="395.52" height="96.68623945584909" fill="none" stroke="none" visibility="hidden"></rect></g></svg></g></svg>